<?xml version="1.0" encoding="utf-8"?>
<svg width="475px" height="217px" viewBox="0 0 475 217" version="1.1" xmlns:xlink="http://www.w3.org/1999/xlink" xmlns="http://www.w3.org/2000/svg">
  <defs>
    <path d="M0 0L475 0L475 206L0 206L0 0Z" id="path_1" />
    <path d="M0 0L269 0L269 50L0 50L0 0Z" id="path_2" />
    <clipPath id="clip_1">
      <use xlink:href="#path_1" clip-rule="evenodd" fill-rule="evenodd" transform="translate(0, -2.404007)" />
    </clipPath>
    <clipPath id="clip_2">
      <use xlink:href="#path_2" clip-rule="evenodd" fill-rule="evenodd" transform="translate(0, -10.455994)" />
    </clipPath>
  </defs>
  <g id="Group-2">
    <g id="Group">
      <g id="userly" clip-path="url(#clip_1)" transform="translate(0 2.404007)">
        <g transform="translate(19.044006, 0)" id="userly">
          <path d="M59.926 79.348L78.85 79.348L78.85 122.01Q78.85 131.97 80.095 138.693Q81.34 145.416 82.834 149.566Q84.66 154.546 86.818 157.368L72.044 163.344Q70.052 161.518 68.392 158.696Q67.064 156.372 65.653 152.969Q64.242 149.566 63.744 144.918Q59.262 154.712 51.128 158.862Q42.994 163.012 34.196 163.012Q21.082 163.012 15.521 155.376Q9.96 147.74 9.96 134.46L9.96 79.348L28.884 79.348L28.884 134.128Q28.884 141.1 31.374 145.084Q33.864 149.068 39.84 149.068Q43.492 149.068 47.061 146.993Q50.63 144.918 53.535 141.1Q56.44 137.282 58.183 131.887Q59.926 126.492 59.926 119.852L59.926 79.348ZM126.326 77.356Q131.14 77.356 135.788 78.352Q140.436 79.348 144.088 80.676Q148.404 82.17 152.056 83.83L146.412 96.778Q143.092 95.284 139.772 94.122Q136.95 93.126 133.547 92.213Q130.144 91.3 126.824 91.3Q123.006 91.3 120.267 93.126Q117.528 94.952 117.528 98.604Q117.528 108.066 131.306 113.378Q136.452 115.37 140.602 117.611Q144.752 119.852 147.657 122.84Q150.562 125.828 152.056 129.729Q153.55 133.63 153.55 138.942Q153.55 143.59 151.641 148.072Q149.732 152.554 145.997 156.04Q142.262 159.526 136.867 161.601Q131.472 163.676 124.666 163.676Q119.188 163.676 113.876 162.431Q108.564 161.186 104.331 159.692Q100.098 158.198 97.608 156.87L95.118 155.708L101.26 141.764L103.418 142.926Q105.576 144.254 108.896 145.748Q112.216 147.242 116.034 148.487Q119.852 149.732 123.006 149.732Q128.816 149.732 131.638 147.408Q134.46 145.084 134.46 141.266Q134.46 136.95 131.389 133.381Q128.318 129.812 122.176 127.488Q109.394 122.674 103.833 116.532Q98.272 110.39 98.272 100.596Q98.272 95.948 100.43 91.715Q102.588 87.482 106.323 84.245Q110.058 81.008 115.204 79.182Q120.35 77.356 126.326 77.356ZM165.336 122.674Q165.336 111.552 168.407 103.086Q171.478 94.62 176.873 88.893Q182.268 83.166 189.572 80.261Q196.876 77.356 205.342 77.356Q212.812 77.356 218.041 79.182Q223.27 81.008 226.59 84.162Q229.91 87.316 231.487 91.632Q233.064 95.948 233.064 100.928Q233.064 106.904 229.744 112.299Q226.424 117.694 220.199 121.761Q213.974 125.828 205.176 128.235Q196.378 130.642 185.422 130.808Q185.92 134.626 186.999 138.029Q188.078 141.432 190.153 144.005Q192.228 146.578 195.548 148.072Q198.868 149.566 203.848 149.566Q207.5 149.566 211.65 148.736Q215.8 147.906 219.286 146.744Q223.436 145.416 227.42 143.756L232.4 155.542Q228.084 157.7 223.104 159.36Q218.788 160.854 213.144 162.016Q207.5 163.178 201.192 163.178Q191.564 163.178 184.758 160.273Q177.952 157.368 173.636 152.056Q169.32 146.744 167.328 139.274Q165.336 131.804 165.336 122.674ZM203.848 90.304Q198.37 90.304 194.801 92.877Q191.232 95.45 189.074 99.517Q186.916 103.584 186.003 108.647Q185.09 113.71 184.924 118.856Q192.892 118.524 198.453 116.781Q204.014 115.038 207.5 112.465Q210.986 109.892 212.563 106.904Q214.14 103.916 214.14 100.928Q214.14 96.114 211.318 93.209Q208.496 90.304 203.848 90.304ZM285.852 96.612Q282.864 96.612 279.876 98.106Q276.888 99.6 274.564 102.173Q272.24 104.746 270.746 108.398Q269.252 112.05 269.252 116.532L269.252 162.016L250.328 162.016L250.328 120.184Q250.328 110.224 249 103.501Q247.672 96.778 246.178 92.628Q244.352 87.814 242.194 84.826L257.134 78.85Q258.628 80.676 260.288 83.332Q261.616 85.656 262.944 88.81Q264.272 91.964 265.102 96.28Q268.422 86.652 274.73 82.419Q281.038 78.186 289.006 78.186Q292.824 78.186 296.144 79.099Q299.464 80.012 299.298 80.012L293.986 98.438Q294.152 98.438 292.077 97.525Q290.002 96.612 285.852 96.612ZM327.684 162.68Q318.222 162.68 313.74 157.451Q309.258 152.222 309.258 144.088L309.258 44.986L328.182 41.5L328.182 142.262Q328.182 146.08 329.676 147.574Q331.17 149.068 333.992 149.068Q335.652 149.068 337.229 148.902Q338.806 148.736 340.134 148.404Q341.628 148.072 342.79 147.74L345.114 159.692Q342.956 160.522 340.3 161.186Q337.976 161.85 334.822 162.265Q331.668 162.68 327.684 162.68ZM425.956 128.484Q425.956 133.464 426.703 137.614Q427.45 141.764 428.363 145.831Q429.276 149.898 430.106 154.048Q430.936 158.198 430.936 163.178Q430.936 180.774 421.972 189.406Q413.008 198.038 397.736 198.038Q392.756 198.038 387.776 197.125Q382.796 196.212 378.563 195.05Q374.33 193.888 371.342 192.726Q368.354 191.564 367.358 191.066L372.006 176.624Q374.33 177.62 377.235 178.699Q380.14 179.778 383.211 180.774Q386.282 181.77 389.602 182.434Q392.922 183.098 396.076 183.098Q405.372 183.098 409.522 177.537Q413.672 171.976 413.672 163.178Q413.672 155.21 410.352 146.744Q405.704 155.542 397.985 159.277Q390.266 163.012 381.8 163.012Q368.686 163.012 363.125 155.376Q357.564 147.74 357.564 134.46L357.564 79.348L376.488 79.348L376.488 133.962Q376.488 140.934 378.978 144.918Q381.468 148.902 387.444 148.902Q390.598 148.902 394.167 147.076Q397.736 145.25 400.641 142.013Q403.546 138.776 405.455 134.211Q407.364 129.646 407.364 124.334L407.364 79.348L426.786 79.348L425.956 128.484Z" />
        </g>
      </g>
      <g id="user-management-system" clip-path="url(#clip_2)" transform="translate(32 177.456)">
        <g transform="translate(3.5919952, 0)" id="user-management-system">
          <path d="M8.664 11.472L11.4 11.472L11.4 17.64Q11.4 19.08 11.58 20.052Q11.76 21.024 11.976 21.624Q12.24 22.344 12.552 22.752L10.416 23.616Q10.128 23.352 9.888 22.944Q9.696 22.608 9.492 22.116Q9.288 21.624 9.216 20.952Q8.568 22.368 7.392 22.968Q6.216 23.568 4.944 23.568Q3.048 23.568 2.244 22.464Q1.44 21.36 1.44 19.44L1.44 11.472L4.176 11.472L4.176 19.392Q4.176 20.4 4.536 20.976Q4.896 21.552 5.76 21.552Q6.288 21.552 6.804 21.252Q7.32 20.952 7.74 20.4Q8.16 19.848 8.412 19.068Q8.664 18.288 8.664 17.328L8.664 11.472ZM18.264 11.184Q18.96 11.184 19.632 11.328Q20.304 11.472 20.832 11.664Q21.456 11.88 21.984 12.12L21.168 13.992Q20.688 13.776 20.208 13.608Q19.8 13.464 19.308 13.332Q18.816 13.2 18.336 13.2Q17.784 13.2 17.388 13.464Q16.992 13.728 16.992 14.256Q16.992 15.624 18.984 16.392Q19.728 16.68 20.328 17.004Q20.928 17.328 21.348 17.76Q21.768 18.192 21.984 18.756Q22.2 19.32 22.2 20.088Q22.2 20.76 21.924 21.408Q21.648 22.056 21.108 22.56Q20.568 23.064 19.788 23.364Q19.008 23.664 18.024 23.664Q17.232 23.664 16.464 23.484Q15.696 23.304 15.084 23.088Q14.472 22.872 14.112 22.68L13.752 22.512L14.64 20.496L14.952 20.664Q15.264 20.856 15.744 21.072Q16.224 21.288 16.776 21.468Q17.328 21.648 17.784 21.648Q18.624 21.648 19.032 21.312Q19.44 20.976 19.44 20.424Q19.44 19.8 18.996 19.284Q18.552 18.768 17.664 18.432Q15.816 17.736 15.012 16.848Q14.208 15.96 14.208 14.544Q14.208 13.872 14.52 13.26Q14.832 12.648 15.372 12.18Q15.912 11.712 16.656 11.448Q17.4 11.184 18.264 11.184ZM23.904 17.736Q23.904 16.128 24.348 14.904Q24.792 13.68 25.572 12.852Q26.352 12.024 27.408 11.604Q28.464 11.184 29.688 11.184Q30.768 11.184 31.524 11.448Q32.28 11.712 32.76 12.168Q33.24 12.624 33.468 13.248Q33.696 13.872 33.696 14.592Q33.696 15.456 33.216 16.236Q32.736 17.016 31.836 17.604Q30.936 18.192 29.664 18.54Q28.392 18.888 26.808 18.912Q26.88 19.464 27.036 19.956Q27.192 20.448 27.492 20.82Q27.792 21.192 28.272 21.408Q28.752 21.624 29.472 21.624Q30 21.624 30.6 21.504Q31.2 21.384 31.704 21.216Q32.304 21.024 32.88 20.784L33.6 22.488Q32.976 22.8 32.256 23.04Q31.632 23.256 30.816 23.424Q30 23.592 29.088 23.592Q27.696 23.592 26.712 23.172Q25.728 22.752 25.104 21.984Q24.48 21.216 24.192 20.136Q23.904 19.056 23.904 17.736ZM29.472 13.056Q28.68 13.056 28.164 13.428Q27.648 13.8 27.336 14.388Q27.024 14.976 26.892 15.708Q26.76 16.44 26.736 17.184Q27.888 17.136 28.692 16.884Q29.496 16.632 30 16.26Q30.504 15.888 30.732 15.456Q30.96 15.024 30.96 14.592Q30.96 13.896 30.552 13.476Q30.144 13.056 29.472 13.056ZM41.328 13.968Q40.896 13.968 40.464 14.184Q40.032 14.4 39.696 14.772Q39.36 15.144 39.144 15.672Q38.928 16.2 38.928 16.848L38.928 23.424L36.192 23.424L36.192 17.376Q36.192 15.936 36 14.964Q35.808 13.992 35.592 13.392Q35.328 12.696 35.016 12.264L37.176 11.4Q37.392 11.664 37.632 12.048Q37.824 12.384 38.016 12.84Q38.208 13.296 38.328 13.92Q38.808 12.528 39.72 11.916Q40.632 11.304 41.784 11.304Q42.336 11.304 42.816 11.436Q43.296 11.568 43.272 11.568L42.504 14.232Q42.528 14.232 42.228 14.1Q41.928 13.968 41.328 13.968ZM64.656 23.424L64.656 15.6Q64.656 14.592 64.344 14.004Q64.032 13.416 63.264 13.416Q62.808 13.416 62.34 13.668Q61.872 13.92 61.488 14.4Q61.104 14.88 60.864 15.552Q60.624 16.224 60.624 17.04L60.624 23.424L57.912 23.424L57.912 15.6Q57.912 14.592 57.6 14.004Q57.288 13.416 56.52 13.416Q56.04 13.416 55.572 13.692Q55.104 13.968 54.732 14.496Q54.36 15.024 54.132 15.78Q53.904 16.536 53.904 17.472L53.904 23.424L51.168 23.424L51.168 17.376Q51.168 15.936 50.976 14.964Q50.784 13.992 50.568 13.392Q50.304 12.696 49.992 12.264L52.152 11.4Q52.392 11.664 52.632 12.048Q52.824 12.384 53.016 12.876Q53.208 13.368 53.328 13.992Q53.928 12.552 55.02 11.916Q56.112 11.28 57.336 11.28Q58.56 11.28 59.244 11.904Q59.928 12.528 60.264 13.512Q60.912 12.312 61.932 11.796Q62.952 11.28 64.08 11.28Q65.016 11.28 65.652 11.58Q66.288 11.88 66.66 12.42Q67.032 12.96 67.2 13.716Q67.368 14.472 67.368 15.408L67.368 23.424L64.656 23.424ZM80.016 17.64Q80.016 19.08 80.196 20.052Q80.376 21.024 80.592 21.624Q80.856 22.344 81.168 22.752L79.032 23.616Q78.72 23.304 78.456 22.872Q78.24 22.488 78.048 21.948Q77.856 21.408 77.808 20.664Q77.4 22.104 76.5 22.836Q75.6 23.568 74.064 23.568Q72.936 23.568 72.108 23.148Q71.28 22.728 70.728 21.948Q70.176 21.168 69.912 20.064Q69.648 18.96 69.648 17.616Q69.648 16.248 70.068 15.084Q70.488 13.92 71.244 13.08Q72 12.24 73.056 11.76Q74.112 11.28 75.384 11.28Q76.104 11.28 76.884 11.388Q77.664 11.496 78.336 11.616Q79.008 11.736 79.476 11.844Q79.944 11.952 80.016 11.976L80.016 17.64ZM74.52 21.648Q75.12 21.648 75.624 21.24Q76.128 20.832 76.5 20.172Q76.872 19.512 77.076 18.66Q77.28 17.808 77.28 16.92L77.28 13.464Q77.04 13.392 76.56 13.296Q76.08 13.2 75.696 13.2Q74.784 13.2 74.196 13.512Q73.608 13.824 73.248 14.376Q72.888 14.928 72.744 15.696Q72.6 16.464 72.6 17.376Q72.6 18.216 72.648 18.984Q72.696 19.752 72.9 20.352Q73.104 20.952 73.488 21.3Q73.872 21.648 74.52 21.648ZM90.192 23.424L90.192 15.672Q90.192 14.664 89.832 14.052Q89.472 13.44 88.608 13.44Q88.056 13.44 87.54 13.716Q87.024 13.992 86.616 14.52Q86.208 15.048 85.956 15.804Q85.704 16.56 85.704 17.496L85.704 23.424L82.968 23.424L82.968 17.376Q82.968 15.936 82.776 14.964Q82.584 13.992 82.368 13.392Q82.104 12.696 81.792 12.264L83.952 11.4Q84.192 11.664 84.432 12.048Q84.624 12.384 84.816 12.876Q85.008 13.368 85.128 13.992Q85.752 12.552 86.928 11.916Q88.104 11.28 89.4 11.28Q91.248 11.28 92.076 12.396Q92.904 13.512 92.904 15.408L92.904 23.424L90.192 23.424ZM105.576 17.64Q105.576 19.08 105.756 20.052Q105.936 21.024 106.152 21.624Q106.416 22.344 106.728 22.752L104.592 23.616Q104.28 23.304 104.016 22.872Q103.8 22.488 103.608 21.948Q103.416 21.408 103.368 20.664Q102.96 22.104 102.06 22.836Q101.16 23.568 99.624 23.568Q98.496 23.568 97.668 23.148Q96.84 22.728 96.288 21.948Q95.736 21.168 95.472 20.064Q95.208 18.96 95.208 17.616Q95.208 16.248 95.628 15.084Q96.048 13.92 96.804 13.08Q97.56 12.24 98.616 11.76Q99.672 11.28 100.944 11.28Q101.664 11.28 102.444 11.388Q103.224 11.496 103.896 11.616Q104.568 11.736 105.036 11.844Q105.504 11.952 105.576 11.976L105.576 17.64ZM100.08 21.648Q100.68 21.648 101.184 21.24Q101.688 20.832 102.06 20.172Q102.432 19.512 102.636 18.66Q102.84 17.808 102.84 16.92L102.84 13.464Q102.6 13.392 102.12 13.296Q101.64 13.2 101.256 13.2Q100.344 13.2 99.756 13.512Q99.168 13.824 98.808 14.376Q98.448 14.928 98.304 15.696Q98.16 16.464 98.16 17.376Q98.16 18.216 98.208 18.984Q98.256 19.752 98.46 20.352Q98.664 20.952 99.048 21.3Q99.432 21.648 100.08 21.648ZM110.592 25.536Q110.952 25.68 111.36 25.836Q111.768 25.992 112.224 26.136Q112.68 26.28 113.148 26.376Q113.616 26.472 114.072 26.472Q115.416 26.472 116.016 25.668Q116.616 24.864 116.616 23.592Q116.616 22.344 116.088 21.072Q115.68 22.296 114.804 22.932Q113.928 23.568 112.488 23.568Q111.36 23.568 110.532 23.148Q109.704 22.728 109.152 21.948Q108.6 21.168 108.336 20.064Q108.072 18.96 108.072 17.616Q108.072 16.248 108.492 15.084Q108.912 13.92 109.668 13.08Q110.424 12.24 111.48 11.76Q112.536 11.28 113.808 11.28Q114.384 11.28 115.044 11.352Q115.704 11.424 116.34 11.532Q116.976 11.64 117.54 11.76Q118.104 11.88 118.512 11.976L118.392 18.576Q118.368 19.296 118.476 19.896Q118.584 20.496 118.728 21.084Q118.872 21.672 118.992 22.272Q119.112 22.872 119.112 23.592Q119.112 26.136 117.816 27.384Q116.52 28.632 114.312 28.632Q113.592 28.632 112.872 28.5Q112.152 28.368 111.54 28.2Q110.928 28.032 110.496 27.864Q110.064 27.696 109.92 27.624L110.592 25.536ZM112.944 21.648Q113.52 21.648 114.012 21.264Q114.504 20.88 114.888 20.244Q115.272 19.608 115.488 18.792Q115.704 17.976 115.704 17.112L115.704 13.464Q115.464 13.392 114.984 13.296Q114.504 13.2 114.12 13.2Q113.208 13.2 112.62 13.512Q112.032 13.824 111.672 14.376Q111.312 14.928 111.168 15.696Q111.024 16.464 111.024 17.376Q111.024 18.216 111.072 18.984Q111.12 19.752 111.324 20.352Q111.528 20.952 111.912 21.3Q112.296 21.648 112.944 21.648ZM120.816 17.736Q120.816 16.128 121.26 14.904Q121.704 13.68 122.484 12.852Q123.264 12.024 124.32 11.604Q125.376 11.184 126.6 11.184Q127.68 11.184 128.436 11.448Q129.192 11.712 129.672 12.168Q130.152 12.624 130.38 13.248Q130.608 13.872 130.608 14.592Q130.608 15.456 130.128 16.236Q129.648 17.016 128.748 17.604Q127.848 18.192 126.576 18.54Q125.304 18.888 123.72 18.912Q123.792 19.464 123.948 19.956Q124.104 20.448 124.404 20.82Q124.704 21.192 125.184 21.408Q125.664 21.624 126.384 21.624Q126.912 21.624 127.512 21.504Q128.112 21.384 128.616 21.216Q129.216 21.024 129.792 20.784L130.512 22.488Q129.888 22.8 129.168 23.04Q128.544 23.256 127.728 23.424Q126.912 23.592 126 23.592Q124.608 23.592 123.624 23.172Q122.64 22.752 122.016 21.984Q121.392 21.216 121.104 20.136Q120.816 19.056 120.816 17.736ZM126.384 13.056Q125.592 13.056 125.076 13.428Q124.56 13.8 124.248 14.388Q123.936 14.976 123.804 15.708Q123.672 16.44 123.648 17.184Q124.8 17.136 125.604 16.884Q126.408 16.632 126.912 16.26Q127.416 15.888 127.644 15.456Q127.872 15.024 127.872 14.592Q127.872 13.896 127.464 13.476Q127.056 13.056 126.384 13.056ZM146.592 23.424L146.592 15.6Q146.592 14.592 146.28 14.004Q145.968 13.416 145.2 13.416Q144.744 13.416 144.276 13.668Q143.808 13.92 143.424 14.4Q143.04 14.88 142.8 15.552Q142.56 16.224 142.56 17.04L142.56 23.424L139.848 23.424L139.848 15.6Q139.848 14.592 139.536 14.004Q139.224 13.416 138.456 13.416Q137.976 13.416 137.508 13.692Q137.04 13.968 136.668 14.496Q136.296 15.024 136.068 15.78Q135.84 16.536 135.84 17.472L135.84 23.424L133.104 23.424L133.104 17.376Q133.104 15.936 132.912 14.964Q132.72 13.992 132.504 13.392Q132.24 12.696 131.928 12.264L134.088 11.4Q134.328 11.664 134.568 12.048Q134.76 12.384 134.952 12.876Q135.144 13.368 135.264 13.992Q135.864 12.552 136.956 11.916Q138.048 11.28 139.272 11.28Q140.496 11.28 141.18 11.904Q141.864 12.528 142.2 13.512Q142.848 12.312 143.868 11.796Q144.888 11.28 146.016 11.28Q146.952 11.28 147.588 11.58Q148.224 11.88 148.596 12.42Q148.968 12.96 149.136 13.716Q149.304 14.472 149.304 15.408L149.304 23.424L146.592 23.424ZM151.584 17.736Q151.584 16.128 152.028 14.904Q152.472 13.68 153.252 12.852Q154.032 12.024 155.088 11.604Q156.144 11.184 157.368 11.184Q158.448 11.184 159.204 11.448Q159.96 11.712 160.44 12.168Q160.92 12.624 161.148 13.248Q161.376 13.872 161.376 14.592Q161.376 15.456 160.896 16.236Q160.416 17.016 159.516 17.604Q158.616 18.192 157.344 18.54Q156.072 18.888 154.488 18.912Q154.56 19.464 154.716 19.956Q154.872 20.448 155.172 20.82Q155.472 21.192 155.952 21.408Q156.432 21.624 157.152 21.624Q157.68 21.624 158.28 21.504Q158.88 21.384 159.384 21.216Q159.984 21.024 160.56 20.784L161.28 22.488Q160.656 22.8 159.936 23.04Q159.312 23.256 158.496 23.424Q157.68 23.592 156.768 23.592Q155.376 23.592 154.392 23.172Q153.408 22.752 152.784 21.984Q152.16 21.216 151.872 20.136Q151.584 19.056 151.584 17.736ZM157.152 13.056Q156.36 13.056 155.844 13.428Q155.328 13.8 155.016 14.388Q154.704 14.976 154.572 15.708Q154.44 16.44 154.416 17.184Q155.568 17.136 156.372 16.884Q157.176 16.632 157.68 16.26Q158.184 15.888 158.412 15.456Q158.64 15.024 158.64 14.592Q158.64 13.896 158.232 13.476Q157.824 13.056 157.152 13.056ZM171.096 23.424L171.096 15.672Q171.096 14.664 170.736 14.052Q170.376 13.44 169.512 13.44Q168.96 13.44 168.444 13.716Q167.928 13.992 167.52 14.52Q167.112 15.048 166.86 15.804Q166.608 16.56 166.608 17.496L166.608 23.424L163.872 23.424L163.872 17.376Q163.872 15.936 163.68 14.964Q163.488 13.992 163.272 13.392Q163.008 12.696 162.696 12.264L164.856 11.4Q165.096 11.664 165.336 12.048Q165.528 12.384 165.72 12.876Q165.912 13.368 166.032 13.992Q166.656 12.552 167.832 11.916Q169.008 11.28 170.304 11.28Q172.152 11.28 172.98 12.396Q173.808 13.512 173.808 15.408L173.808 23.424L171.096 23.424ZM175.512 11.472L177.672 11.472L178.152 8.664L180.408 8.16L180.408 11.472L183.36 11.472L183.024 13.416L180.408 13.416L180.408 20.52Q180.408 21.144 180.744 21.324Q181.08 21.504 181.488 21.504Q181.824 21.504 182.16 21.456Q182.496 21.408 182.76 21.336Q183.072 21.264 183.36 21.168L183.816 22.968L183.6 23.04Q183.384 23.136 182.964 23.244Q182.544 23.352 181.98 23.436Q181.416 23.52 180.744 23.52Q180.072 23.52 179.508 23.376Q178.944 23.232 178.536 22.908Q178.128 22.584 177.9 22.08Q177.672 21.576 177.672 20.832L177.672 13.416L175.512 13.416L175.512 11.472ZM195.144 11.184Q195.84 11.184 196.512 11.328Q197.184 11.472 197.712 11.664Q198.336 11.88 198.864 12.12L198.048 13.992Q197.568 13.776 197.088 13.608Q196.68 13.464 196.188 13.332Q195.696 13.2 195.216 13.2Q194.664 13.2 194.268 13.464Q193.872 13.728 193.872 14.256Q193.872 15.624 195.864 16.392Q196.608 16.68 197.208 17.004Q197.808 17.328 198.228 17.76Q198.648 18.192 198.864 18.756Q199.08 19.32 199.08 20.088Q199.08 20.76 198.804 21.408Q198.528 22.056 197.988 22.56Q197.448 23.064 196.668 23.364Q195.888 23.664 194.904 23.664Q194.112 23.664 193.344 23.484Q192.576 23.304 191.964 23.088Q191.352 22.872 190.992 22.68L190.632 22.512L191.52 20.496L191.832 20.664Q192.144 20.856 192.624 21.072Q193.104 21.288 193.656 21.468Q194.208 21.648 194.664 21.648Q195.504 21.648 195.912 21.312Q196.32 20.976 196.32 20.424Q196.32 19.8 195.876 19.284Q195.432 18.768 194.544 18.432Q192.696 17.736 191.892 16.848Q191.088 15.96 191.088 14.544Q191.088 13.872 191.4 13.26Q191.712 12.648 192.252 12.18Q192.792 11.712 193.536 11.448Q194.28 11.184 195.144 11.184ZM211.272 18.576Q211.272 19.296 211.38 19.896Q211.488 20.496 211.62 21.084Q211.752 21.672 211.872 22.272Q211.992 22.872 211.992 23.592Q211.992 26.136 210.696 27.384Q209.4 28.632 207.192 28.632Q206.472 28.632 205.752 28.5Q205.032 28.368 204.42 28.2Q203.808 28.032 203.376 27.864Q202.944 27.696 202.8 27.624L203.472 25.536Q203.808 25.68 204.228 25.836Q204.648 25.992 205.092 26.136Q205.536 26.28 206.016 26.376Q206.496 26.472 206.952 26.472Q208.296 26.472 208.896 25.668Q209.496 24.864 209.496 23.592Q209.496 22.44 209.016 21.216Q208.344 22.488 207.228 23.028Q206.112 23.568 204.888 23.568Q202.992 23.568 202.188 22.464Q201.384 21.36 201.384 19.44L201.384 11.472L204.12 11.472L204.12 19.368Q204.12 20.376 204.48 20.952Q204.84 21.528 205.704 21.528Q206.16 21.528 206.676 21.264Q207.192 21 207.612 20.532Q208.032 20.064 208.308 19.404Q208.584 18.744 208.584 17.976L208.584 11.472L211.392 11.472L211.272 18.576ZM217.944 11.184Q218.64 11.184 219.312 11.328Q219.984 11.472 220.512 11.664Q221.136 11.88 221.664 12.12L220.848 13.992Q220.368 13.776 219.888 13.608Q219.48 13.464 218.988 13.332Q218.496 13.2 218.016 13.2Q217.464 13.2 217.068 13.464Q216.672 13.728 216.672 14.256Q216.672 15.624 218.664 16.392Q219.408 16.68 220.008 17.004Q220.608 17.328 221.028 17.76Q221.448 18.192 221.664 18.756Q221.88 19.32 221.88 20.088Q221.88 20.76 221.604 21.408Q221.328 22.056 220.788 22.56Q220.248 23.064 219.468 23.364Q218.688 23.664 217.704 23.664Q216.912 23.664 216.144 23.484Q215.376 23.304 214.764 23.088Q214.152 22.872 213.792 22.68L213.432 22.512L214.32 20.496L214.632 20.664Q214.944 20.856 215.424 21.072Q215.904 21.288 216.456 21.468Q217.008 21.648 217.464 21.648Q218.304 21.648 218.712 21.312Q219.12 20.976 219.12 20.424Q219.12 19.8 218.676 19.284Q218.232 18.768 217.344 18.432Q215.496 17.736 214.692 16.848Q213.888 15.96 213.888 14.544Q213.888 13.872 214.2 13.26Q214.512 12.648 215.052 12.18Q215.592 11.712 216.336 11.448Q217.08 11.184 217.944 11.184ZM222.984 11.472L225.144 11.472L225.624 8.664L227.88 8.16L227.88 11.472L230.832 11.472L230.496 13.416L227.88 13.416L227.88 20.52Q227.88 21.144 228.216 21.324Q228.552 21.504 228.96 21.504Q229.296 21.504 229.632 21.456Q229.968 21.408 230.232 21.336Q230.544 21.264 230.832 21.168L231.288 22.968L231.072 23.04Q230.856 23.136 230.436 23.244Q230.016 23.352 229.452 23.436Q228.888 23.52 228.216 23.52Q227.544 23.52 226.98 23.376Q226.416 23.232 226.008 22.908Q225.6 22.584 225.372 22.08Q225.144 21.576 225.144 20.832L225.144 13.416L222.984 13.416L222.984 11.472ZM231.888 17.736Q231.888 16.128 232.332 14.904Q232.776 13.68 233.556 12.852Q234.336 12.024 235.392 11.604Q236.448 11.184 237.672 11.184Q238.752 11.184 239.508 11.448Q240.264 11.712 240.744 12.168Q241.224 12.624 241.452 13.248Q241.68 13.872 241.68 14.592Q241.68 15.456 241.2 16.236Q240.72 17.016 239.82 17.604Q238.92 18.192 237.648 18.54Q236.376 18.888 234.792 18.912Q234.864 19.464 235.02 19.956Q235.176 20.448 235.476 20.82Q235.776 21.192 236.256 21.408Q236.736 21.624 237.456 21.624Q237.984 21.624 238.584 21.504Q239.184 21.384 239.688 21.216Q240.288 21.024 240.864 20.784L241.584 22.488Q240.96 22.8 240.24 23.04Q239.616 23.256 238.8 23.424Q237.984 23.592 237.072 23.592Q235.68 23.592 234.696 23.172Q233.712 22.752 233.088 21.984Q232.464 21.216 232.176 20.136Q231.888 19.056 231.888 17.736ZM237.456 13.056Q236.664 13.056 236.148 13.428Q235.632 13.8 235.32 14.388Q235.008 14.976 234.876 15.708Q234.744 16.44 234.72 17.184Q235.872 17.136 236.676 16.884Q237.48 16.632 237.984 16.26Q238.488 15.888 238.716 15.456Q238.944 15.024 238.944 14.592Q238.944 13.896 238.536 13.476Q238.128 13.056 237.456 13.056ZM257.664 23.424L257.664 15.6Q257.664 14.592 257.352 14.004Q257.04 13.416 256.272 13.416Q255.816 13.416 255.348 13.668Q254.88 13.92 254.496 14.4Q254.112 14.88 253.872 15.552Q253.632 16.224 253.632 17.04L253.632 23.424L250.92 23.424L250.92 15.6Q250.92 14.592 250.608 14.004Q250.296 13.416 249.528 13.416Q249.048 13.416 248.58 13.692Q248.112 13.968 247.74 14.496Q247.368 15.024 247.14 15.78Q246.912 16.536 246.912 17.472L246.912 23.424L244.176 23.424L244.176 17.376Q244.176 15.936 243.984 14.964Q243.792 13.992 243.576 13.392Q243.312 12.696 243 12.264L245.16 11.4Q245.4 11.664 245.64 12.048Q245.832 12.384 246.024 12.876Q246.216 13.368 246.336 13.992Q246.936 12.552 248.028 11.916Q249.12 11.28 250.344 11.28Q251.568 11.28 252.252 11.904Q252.936 12.528 253.272 13.512Q253.92 12.312 254.94 11.796Q255.96 11.28 257.088 11.28Q258.024 11.28 258.66 11.58Q259.296 11.88 259.668 12.42Q260.04 12.96 260.208 13.716Q260.376 14.472 260.376 15.408L260.376 23.424L257.664 23.424Z" />
        </g>
      </g>
    </g>
  </g>
</svg>